<svg xmlns="http://www.w3.org/2000/svg" version="1.1" xmlns:xlink="http://www.w3.org/1999/xlink" xmlns:svgjs="http://svgjs.dev/svgjs" width="1440" height="560" preserveAspectRatio="none" viewBox="0 0 1440 560"><g mask="url(&quot;#SvgjsMask1761&quot;)" fill="none"><rect width="1440" height="560" x="0" y="0" fill="url(&quot;#SvgjsLinearGradient1762&quot;)"></rect><path d="M-51.33 404.33L-51.33 404.33" stroke="#132e65" stroke-width="1.5"></path><path d="M-51.33 404.33L-69.92 521.6" stroke="#132e65" stroke-width="1.5"></path><path d="M-51.33 404.33L71.43 367.28" stroke="#132e65" stroke-width="1.5"></path><path d="M-51.33 404.33L69.62 544.62" stroke="#132e65" stroke-width="1.5"></path><path d="M-51.33 404.33L43.96 672.6" stroke="#132e65" stroke-width="1.5"></path><path d="M-69.92 521.6L-69.92 521.6" stroke="#132e65" stroke-width="1.5"></path><path d="M-69.92 521.6L69.62 544.62" stroke="#132e65" stroke-width="1.5"></path><path d="M-69.92 521.6L-105.96 706.48" stroke="#132e65" stroke-width="1.5"></path><path d="M-69.92 521.6L43.96 672.6" stroke="#132e65" stroke-width="1.5"></path><path d="M-69.92 521.6L71.43 367.28" stroke="#132e65" stroke-width="1.5"></path><path d="M-69.92 521.6L197.52 650.1" stroke="#132e65" stroke-width="1.5"></path><path d="M-105.96 706.48L-105.96 706.48" stroke="#132e65" stroke-width="1.5"></path><path d="M-105.96 706.48L43.96 672.6" stroke="#132e65" stroke-width="1.5"></path><path d="M71.43 367.28L71.43 367.28" stroke="#132e65" stroke-width="1.5"></path><path d="M71.43 367.28L69.62 544.62" stroke="#132e65" stroke-width="1.5"></path><path d="M71.43 367.28L43.96 672.6" stroke="#132e65" stroke-width="1.5"></path><path d="M71.43 367.28L197.52 650.1" stroke="#132e65" stroke-width="1.5"></path><path d="M71.43 367.28L391.49 352.85" stroke="#132e65" stroke-width="1.5"></path><path d="M69.62 544.62L69.62 544.62" stroke="#132e65" stroke-width="1.5"></path><path d="M69.62 544.62L43.96 672.6" stroke="#132e65" stroke-width="1.5"></path><path d="M43.96 672.6L43.96 672.6" stroke="#132e65" stroke-width="1.5"></path><path d="M197.52 650.1L197.52 650.1" stroke="#132e65" stroke-width="1.5"></path><path d="M197.52 650.1L43.96 672.6" stroke="#132e65" stroke-width="1.5"></path><path d="M197.52 650.1L354.17 670.87" stroke="#132e65" stroke-width="1.5"></path><path d="M197.52 650.1L69.62 544.62" stroke="#132e65" stroke-width="1.5"></path><path d="M391.49 352.85L391.49 352.85" stroke="#132e65" stroke-width="1.5"></path><path d="M391.49 352.85L489.53 356.79" stroke="#132e65" stroke-width="1.5"></path><path d="M391.49 352.85L386.55 538.24" stroke="#132e65" stroke-width="1.5"></path><path d="M391.49 352.85L531.39 521.47" stroke="#132e65" stroke-width="1.5"></path><path d="M386.55 538.24L386.55 538.24" stroke="#132e65" stroke-width="1.5"></path><path d="M386.55 538.24L354.17 670.87" stroke="#132e65" stroke-width="1.5"></path><path d="M386.55 538.24L531.39 521.47" stroke="#132e65" stroke-width="1.5"></path><path d="M386.55 538.24L489.53 356.79" stroke="#132e65" stroke-width="1.5"></path><path d="M386.55 538.24L197.52 650.1" stroke="#132e65" stroke-width="1.5"></path><path d="M386.55 538.24L641.37 379.32" stroke="#132e65" stroke-width="1.5"></path><path d="M354.17 670.87L354.17 670.87" stroke="#132e65" stroke-width="1.5"></path><path d="M354.17 670.87L531.39 521.47" stroke="#132e65" stroke-width="1.5"></path><path d="M354.17 670.87L43.96 672.6" stroke="#132e65" stroke-width="1.5"></path><path d="M354.17 670.87L69.62 544.62" stroke="#132e65" stroke-width="1.5"></path><path d="M354.17 670.87L391.49 352.85" stroke="#132e65" stroke-width="1.5"></path><path d="M489.53 356.79L489.53 356.79" stroke="#132e65" stroke-width="1.5"></path><path d="M489.53 356.79L641.37 379.32" stroke="#132e65" stroke-width="1.5"></path><path d="M489.53 356.79L531.39 521.47" stroke="#132e65" stroke-width="1.5"></path><path d="M531.39 521.47L531.39 521.47" stroke="#132e65" stroke-width="1.5"></path><path d="M531.39 521.47L693.96 487.81" stroke="#132e65" stroke-width="1.5"></path><path d="M531.39 521.47L641.37 379.32" stroke="#132e65" stroke-width="1.5"></path><path d="M531.39 521.47L682.58 641.73" stroke="#132e65" stroke-width="1.5"></path><path d="M702.09 258.93L702.09 258.93" stroke="#132e65" stroke-width="1.5"></path><path d="M702.09 258.93L641.37 379.32" stroke="#132e65" stroke-width="1.5"></path><path d="M702.09 258.93L831.24 197.97" stroke="#132e65" stroke-width="1.5"></path><path d="M702.09 258.93L797.12 376.95" stroke="#132e65" stroke-width="1.5"></path><path d="M702.09 258.93L693.96 487.81" stroke="#132e65" stroke-width="1.5"></path><path d="M702.09 258.93L489.53 356.79" stroke="#132e65" stroke-width="1.5"></path><path d="M702.09 258.93L959.63 229.19" stroke="#132e65" stroke-width="1.5"></path><path d="M641.37 379.32L641.37 379.32" stroke="#132e65" stroke-width="1.5"></path><path d="M641.37 379.32L693.96 487.81" stroke="#132e65" stroke-width="1.5"></path><path d="M693.96 487.81L693.96 487.81" stroke="#132e65" stroke-width="1.5"></path><path d="M693.96 487.81L797.12 376.95" stroke="#132e65" stroke-width="1.5"></path><path d="M693.96 487.81L846.06 507.38" stroke="#132e65" stroke-width="1.5"></path><path d="M693.96 487.81L682.58 641.73" stroke="#132e65" stroke-width="1.5"></path><path d="M682.58 641.73L682.58 641.73" stroke="#132e65" stroke-width="1.5"></path><path d="M682.58 641.73L824.37 663.76" stroke="#132e65" stroke-width="1.5"></path><path d="M682.58 641.73L846.06 507.38" stroke="#132e65" stroke-width="1.5"></path><path d="M682.58 641.73L641.37 379.32" stroke="#132e65" stroke-width="1.5"></path><path d="M831.24 197.97L831.24 197.97" stroke="#132e65" stroke-width="1.5"></path><path d="M831.24 197.97L959.63 229.19" stroke="#132e65" stroke-width="1.5"></path><path d="M831.24 197.97L797.12 376.95" stroke="#132e65" stroke-width="1.5"></path><path d="M831.24 197.97L968.99 69.91" stroke="#132e65" stroke-width="1.5"></path><path d="M831.24 197.97L943.89 353.42" stroke="#132e65" stroke-width="1.5"></path><path d="M797.12 376.95L797.12 376.95" stroke="#132e65" stroke-width="1.5"></path><path d="M797.12 376.95L846.06 507.38" stroke="#132e65" stroke-width="1.5"></path><path d="M797.12 376.95L943.89 353.42" stroke="#132e65" stroke-width="1.5"></path><path d="M797.12 376.95L641.37 379.32" stroke="#132e65" stroke-width="1.5"></path><path d="M846.06 507.38L846.06 507.38" stroke="#132e65" stroke-width="1.5"></path><path d="M824.37 663.76L824.37 663.76" stroke="#132e65" stroke-width="1.5"></path><path d="M824.37 663.76L846.06 507.38" stroke="#132e65" stroke-width="1.5"></path><path d="M824.37 663.76L988.92 657.82" stroke="#132e65" stroke-width="1.5"></path><path d="M824.37 663.76L998.43 549.8" stroke="#132e65" stroke-width="1.5"></path><path d="M988.71 -43.54L988.71 -43.54" stroke="#132e65" stroke-width="1.5"></path><path d="M988.71 -43.54L968.99 69.91" stroke="#132e65" stroke-width="1.5"></path><path d="M988.71 -43.54L1098.98 -112.19" stroke="#132e65" stroke-width="1.5"></path><path d="M968.99 69.91L968.99 69.91" stroke="#132e65" stroke-width="1.5"></path><path d="M968.99 69.91L1091.33 84.27" stroke="#132e65" stroke-width="1.5"></path><path d="M968.99 69.91L959.63 229.19" stroke="#132e65" stroke-width="1.5"></path><path d="M968.99 69.91L1090.18 238.52" stroke="#132e65" stroke-width="1.5"></path><path d="M959.63 229.19L959.63 229.19" stroke="#132e65" stroke-width="1.5"></path><path d="M959.63 229.19L943.89 353.42" stroke="#132e65" stroke-width="1.5"></path><path d="M959.63 229.19L1090.18 238.52" stroke="#132e65" stroke-width="1.5"></path><path d="M959.63 229.19L1091.33 84.27" stroke="#132e65" stroke-width="1.5"></path><path d="M943.89 353.42L943.89 353.42" stroke="#132e65" stroke-width="1.5"></path><path d="M943.89 353.42L846.06 507.38" stroke="#132e65" stroke-width="1.5"></path><path d="M943.89 353.42L1123.83 393.42" stroke="#132e65" stroke-width="1.5"></path><path d="M998.43 549.8L998.43 549.8" stroke="#132e65" stroke-width="1.5"></path><path d="M998.43 549.8L1105.28 536.37" stroke="#132e65" stroke-width="1.5"></path><path d="M998.43 549.8L988.92 657.82" stroke="#132e65" stroke-width="1.5"></path><path d="M998.43 549.8L846.06 507.38" stroke="#132e65" stroke-width="1.5"></path><path d="M998.43 549.8L1123.83 393.42" stroke="#132e65" stroke-width="1.5"></path><path d="M998.43 549.8L943.89 353.42" stroke="#132e65" stroke-width="1.5"></path><path d="M988.92 657.82L988.92 657.82" stroke="#132e65" stroke-width="1.5"></path><path d="M988.92 657.82L1131.96 711" stroke="#132e65" stroke-width="1.5"></path><path d="M988.92 657.82L1105.28 536.37" stroke="#132e65" stroke-width="1.5"></path><path d="M1098.98 -112.19L1098.98 -112.19" stroke="#132e65" stroke-width="1.5"></path><path d="M1098.98 -112.19L1091.33 84.27" stroke="#132e65" stroke-width="1.5"></path><path d="M1091.33 84.27L1091.33 84.27" stroke="#132e65" stroke-width="1.5"></path><path d="M1091.33 84.27L1090.18 238.52" stroke="#132e65" stroke-width="1.5"></path><path d="M1091.33 84.27L988.71 -43.54" stroke="#132e65" stroke-width="1.5"></path><path d="M1091.33 84.27L1270.27 55.97" stroke="#132e65" stroke-width="1.5"></path><path d="M1090.18 238.52L1090.18 238.52" stroke="#132e65" stroke-width="1.5"></path><path d="M1123.83 393.42L1123.83 393.42" stroke="#132e65" stroke-width="1.5"></path><path d="M1123.83 393.42L1105.28 536.37" stroke="#132e65" stroke-width="1.5"></path><path d="M1123.83 393.42L1278.08 412.39" stroke="#132e65" stroke-width="1.5"></path><path d="M1123.83 393.42L1090.18 238.52" stroke="#132e65" stroke-width="1.5"></path><path d="M1105.28 536.37L1105.28 536.37" stroke="#132e65" stroke-width="1.5"></path><path d="M1105.28 536.37L1269.04 521.08" stroke="#132e65" stroke-width="1.5"></path><path d="M1131.96 711L1131.96 711" stroke="#132e65" stroke-width="1.5"></path><path d="M1131.96 711L1273.17 661.86" stroke="#132e65" stroke-width="1.5"></path><path d="M1131.96 711L1105.28 536.37" stroke="#132e65" stroke-width="1.5"></path><path d="M1287.95 -55.98L1287.95 -55.98" stroke="#132e65" stroke-width="1.5"></path><path d="M1287.95 -55.98L1270.27 55.97" stroke="#132e65" stroke-width="1.5"></path><path d="M1287.95 -55.98L1400.93 -40.4" stroke="#132e65" stroke-width="1.5"></path><path d="M1287.95 -55.98L1402.84 99.9" stroke="#132e65" stroke-width="1.5"></path><path d="M1287.95 -55.98L1098.98 -112.19" stroke="#132e65" stroke-width="1.5"></path><path d="M1287.95 -55.98L1091.33 84.27" stroke="#132e65" stroke-width="1.5"></path><path d="M1287.95 -55.98L1542.3 -93.32" stroke="#132e65" stroke-width="1.5"></path><path d="M1270.27 55.97L1270.27 55.97" stroke="#132e65" stroke-width="1.5"></path><path d="M1270.27 55.97L1402.84 99.9" stroke="#132e65" stroke-width="1.5"></path><path d="M1270.27 55.97L1400.93 -40.4" stroke="#132e65" stroke-width="1.5"></path><path d="M1270.27 55.97L1287.86 222.08" stroke="#132e65" stroke-width="1.5"></path><path d="M1287.86 222.08L1287.86 222.08" stroke="#132e65" stroke-width="1.5"></path><path d="M1287.86 222.08L1388.75 209.89" stroke="#132e65" stroke-width="1.5"></path><path d="M1287.86 222.08L1402.84 99.9" stroke="#132e65" stroke-width="1.5"></path><path d="M1287.86 222.08L1278.08 412.39" stroke="#132e65" stroke-width="1.5"></path><path d="M1287.86 222.08L1090.18 238.52" stroke="#132e65" stroke-width="1.5"></path><path d="M1287.86 222.08L1420.49 406.31" stroke="#132e65" stroke-width="1.5"></path><path d="M1278.08 412.39L1278.08 412.39" stroke="#132e65" stroke-width="1.5"></path><path d="M1278.08 412.39L1269.04 521.08" stroke="#132e65" stroke-width="1.5"></path><path d="M1278.08 412.39L1420.49 406.31" stroke="#132e65" stroke-width="1.5"></path><path d="M1278.08 412.39L1408.14 513.94" stroke="#132e65" stroke-width="1.5"></path><path d="M1269.04 521.08L1269.04 521.08" stroke="#132e65" stroke-width="1.5"></path><path d="M1269.04 521.08L1408.14 513.94" stroke="#132e65" stroke-width="1.5"></path><path d="M1269.04 521.08L1273.17 661.86" stroke="#132e65" stroke-width="1.5"></path><path d="M1269.04 521.08L1420.49 406.31" stroke="#132e65" stroke-width="1.5"></path><path d="M1269.04 521.08L1391.49 667.36" stroke="#132e65" stroke-width="1.5"></path><path d="M1273.17 661.86L1273.17 661.86" stroke="#132e65" stroke-width="1.5"></path><path d="M1273.17 661.86L1391.49 667.36" stroke="#132e65" stroke-width="1.5"></path><path d="M1273.17 661.86L1408.14 513.94" stroke="#132e65" stroke-width="1.5"></path><path d="M1273.17 661.86L1105.28 536.37" stroke="#132e65" stroke-width="1.5"></path><path d="M1273.17 661.86L1278.08 412.39" stroke="#132e65" stroke-width="1.5"></path><path d="M1400.93 -40.4L1400.93 -40.4" stroke="#132e65" stroke-width="1.5"></path><path d="M1400.93 -40.4L1402.84 99.9" stroke="#132e65" stroke-width="1.5"></path><path d="M1400.93 -40.4L1542.3 -93.32" stroke="#132e65" stroke-width="1.5"></path><path d="M1400.93 -40.4L1589.61 46.09" stroke="#132e65" stroke-width="1.5"></path><path d="M1400.93 -40.4L1388.75 209.89" stroke="#132e65" stroke-width="1.5"></path><path d="M1402.84 99.9L1402.84 99.9" stroke="#132e65" stroke-width="1.5"></path><path d="M1402.84 99.9L1388.75 209.89" stroke="#132e65" stroke-width="1.5"></path><path d="M1402.84 99.9L1589.61 46.09" stroke="#132e65" stroke-width="1.5"></path><path d="M1388.75 209.89L1388.75 209.89" stroke="#132e65" stroke-width="1.5"></path><path d="M1388.75 209.89L1562.82 219.46" stroke="#132e65" stroke-width="1.5"></path><path d="M1388.75 209.89L1270.27 55.97" stroke="#132e65" stroke-width="1.5"></path><path d="M1388.75 209.89L1420.49 406.31" stroke="#132e65" stroke-width="1.5"></path><path d="M1388.75 209.89L1278.08 412.39" stroke="#132e65" stroke-width="1.5"></path><path d="M1420.49 406.31L1420.49 406.31" stroke="#132e65" stroke-width="1.5"></path><path d="M1420.49 406.31L1408.14 513.94" stroke="#132e65" stroke-width="1.5"></path><path d="M1420.49 406.31L1560.2 521.91" stroke="#132e65" stroke-width="1.5"></path><path d="M1420.49 406.31L1599.73 361.01" stroke="#132e65" stroke-width="1.5"></path><path d="M1408.14 513.94L1408.14 513.94" stroke="#132e65" stroke-width="1.5"></path><path d="M1391.49 667.36L1391.49 667.36" stroke="#132e65" stroke-width="1.5"></path><path d="M1391.49 667.36L1408.14 513.94" stroke="#132e65" stroke-width="1.5"></path><path d="M1391.49 667.36L1552.97 687.76" stroke="#132e65" stroke-width="1.5"></path><path d="M1542.3 -93.32L1542.3 -93.32" stroke="#132e65" stroke-width="1.5"></path><path d="M1542.3 -93.32L1589.61 46.09" stroke="#132e65" stroke-width="1.5"></path><path d="M1542.3 -93.32L1402.84 99.9" stroke="#132e65" stroke-width="1.5"></path><path d="M1589.61 46.09L1589.61 46.09" stroke="#132e65" stroke-width="1.5"></path><path d="M1589.61 46.09L1562.82 219.46" stroke="#132e65" stroke-width="1.5"></path><path d="M1562.82 219.46L1562.82 219.46" stroke="#132e65" stroke-width="1.5"></path><path d="M1562.82 219.46L1599.73 361.01" stroke="#132e65" stroke-width="1.5"></path><path d="M1562.82 219.46L1402.84 99.9" stroke="#132e65" stroke-width="1.5"></path><path d="M1562.82 219.46L1420.49 406.31" stroke="#132e65" stroke-width="1.5"></path><path d="M1599.73 361.01L1599.73 361.01" stroke="#132e65" stroke-width="1.5"></path><path d="M1599.73 361.01L1560.2 521.91" stroke="#132e65" stroke-width="1.5"></path><path d="M1560.2 521.91L1560.2 521.91" stroke="#132e65" stroke-width="1.5"></path><path d="M1560.2 521.91L1408.14 513.94" stroke="#132e65" stroke-width="1.5"></path><path d="M1560.2 521.91L1552.97 687.76" stroke="#132e65" stroke-width="1.5"></path><path d="M1560.2 521.91L1391.49 667.36" stroke="#132e65" stroke-width="1.5"></path><path d="M1560.2 521.91L1269.04 521.08" stroke="#132e65" stroke-width="1.5"></path><path d="M1552.97 687.76L1552.97 687.76" stroke="#132e65" stroke-width="1.5"></path><circle r="5" cx="-51.33" cy="404.33" fill="#132e65"></circle><circle r="5" cx="-69.92" cy="521.6" fill="#132e65"></circle><circle r="5" cx="-105.96" cy="706.48" fill="#132e65"></circle><circle r="5" cx="71.43" cy="367.28" fill="#132e65"></circle><circle r="5" cx="69.62" cy="544.62" fill="#132e65"></circle><circle r="5" cx="43.96" cy="672.6" fill="#132e65"></circle><circle r="5" cx="197.52" cy="650.1" fill="#132e65"></circle><circle r="5" cx="391.49" cy="352.85" fill="#132e65"></circle><circle r="5" cx="386.55" cy="538.24" fill="#132e65"></circle><circle r="5" cx="354.17" cy="670.87" fill="#132e65"></circle><circle r="5" cx="489.53" cy="356.79" fill="#132e65"></circle><circle r="5" cx="531.39" cy="521.47" fill="#132e65"></circle><circle r="5" cx="702.09" cy="258.93" fill="#132e65"></circle><circle r="5" cx="641.37" cy="379.32" fill="#132e65"></circle><circle r="5" cx="693.96" cy="487.81" fill="#132e65"></circle><circle r="5" cx="682.58" cy="641.73" fill="#132e65"></circle><circle r="5" cx="831.24" cy="197.97" fill="#132e65"></circle><circle r="5" cx="797.12" cy="376.95" fill="#132e65"></circle><circle r="5" cx="846.06" cy="507.38" fill="#132e65"></circle><circle r="5" cx="824.37" cy="663.76" fill="#132e65"></circle><circle r="5" cx="988.71" cy="-43.54" fill="#132e65"></circle><circle r="5" cx="968.99" cy="69.91" fill="#132e65"></circle><circle r="5" cx="959.63" cy="229.19" fill="#132e65"></circle><circle r="5" cx="943.89" cy="353.42" fill="#132e65"></circle><circle r="5" cx="998.43" cy="549.8" fill="#132e65"></circle><circle r="5" cx="988.92" cy="657.82" fill="#132e65"></circle><circle r="5" cx="1098.98" cy="-112.19" fill="#132e65"></circle><circle r="5" cx="1091.33" cy="84.27" fill="#132e65"></circle><circle r="5" cx="1090.18" cy="238.52" fill="#132e65"></circle><circle r="5" cx="1123.83" cy="393.42" fill="#132e65"></circle><circle r="5" cx="1105.28" cy="536.37" fill="#132e65"></circle><circle r="5" cx="1131.96" cy="711" fill="#132e65"></circle><circle r="5" cx="1287.95" cy="-55.98" fill="#132e65"></circle><circle r="5" cx="1270.27" cy="55.97" fill="#132e65"></circle><circle r="5" cx="1287.86" cy="222.08" fill="#132e65"></circle><circle r="5" cx="1278.08" cy="412.39" fill="#132e65"></circle><circle r="5" cx="1269.04" cy="521.08" fill="#132e65"></circle><circle r="5" cx="1273.17" cy="661.86" fill="#132e65"></circle><circle r="5" cx="1400.93" cy="-40.4" fill="#132e65"></circle><circle r="5" cx="1402.84" cy="99.9" fill="#132e65"></circle><circle r="5" cx="1388.75" cy="209.89" fill="#132e65"></circle><circle r="5" cx="1420.49" cy="406.31" fill="#132e65"></circle><circle r="5" cx="1408.14" cy="513.94" fill="#132e65"></circle><circle r="5" cx="1391.49" cy="667.36" fill="#132e65"></circle><circle r="5" cx="1542.3" cy="-93.32" fill="#132e65"></circle><circle r="5" cx="1589.61" cy="46.09" fill="#132e65"></circle><circle r="5" cx="1562.82" cy="219.46" fill="#132e65"></circle><circle r="5" cx="1599.73" cy="361.01" fill="#132e65"></circle><circle r="5" cx="1560.2" cy="521.91" fill="#132e65"></circle><circle r="5" cx="1552.97" cy="687.76" fill="#132e65"></circle><path d="M698.5 560.01L698.5 560.01" stroke="hsl(228.5, 77.2%, 51.5%)" stroke-width="1.5"></path><path d="M698.5 560.01L703.84 703.93" stroke="hsl(228.5, 77.2%, 51.5%)" stroke-width="1.5"></path><path d="M972.64 496.93L972.64 496.93" stroke="hsl(228.5, 77.2%, 51.5%)" stroke-width="1.5"></path><path d="M972.64 496.93L1090.24 560.96" stroke="hsl(228.5, 77.2%, 51.5%)" stroke-width="1.5"></path><path d="M972.64 496.93L836.21 356.47" stroke="hsl(228.5, 77.2%, 51.5%)" stroke-width="1.5"></path><path d="M1130.23 377.83L1130.23 377.83" stroke="hsl(228.5, 77.2%, 51.5%)" stroke-width="1.5"></path><path d="M1130.23 377.83L1102.44 254.27" stroke="hsl(228.5, 77.2%, 51.5%)" stroke-width="1.5"></path><path d="M1130.23 377.83L1257.81 344.84" stroke="hsl(228.5, 77.2%, 51.5%)" stroke-width="1.5"></path><path d="M1438.65 517.07L1438.65 517.07" stroke="hsl(228.5, 77.2%, 51.5%)" stroke-width="1.5"></path><path d="M1438.65 517.07L1388.47 409.37" stroke="hsl(228.5, 77.2%, 51.5%)" stroke-width="1.5"></path><path d="M1438.65 517.07L1445.98 693.68" stroke="hsl(228.5, 77.2%, 51.5%)" stroke-width="1.5"></path><path d="M1438.65 517.07L1612.44 551.36" stroke="hsl(228.5, 77.2%, 51.5%)" stroke-width="1.5"></path><path d="M1438.65 517.07L1247.02 555.2" stroke="hsl(228.5, 77.2%, 51.5%)" stroke-width="1.5"></path><path d="M1438.65 517.07L1553.05 691.62" stroke="hsl(228.5, 77.2%, 51.5%)" stroke-width="1.5"></path><path d="M1438.65 517.07L1579.11 356.6" stroke="hsl(228.5, 77.2%, 51.5%)" stroke-width="1.5"></path><path d="M1445.98 693.68L1445.98 693.68" stroke="hsl(228.5, 77.2%, 51.5%)" stroke-width="1.5"></path><path d="M1445.98 693.68L1553.05 691.62" stroke="hsl(228.5, 77.2%, 51.5%)" stroke-width="1.5"></path><path d="M1445.98 693.68L1267.23 649.82" stroke="hsl(228.5, 77.2%, 51.5%)" stroke-width="1.5"></path><path d="M1445.98 693.68L1612.44 551.36" stroke="hsl(228.5, 77.2%, 51.5%)" stroke-width="1.5"></path><path d="M1445.98 693.68L1247.02 555.2" stroke="hsl(228.5, 77.2%, 51.5%)" stroke-width="1.5"></path><path d="M1553.05 691.62L1553.05 691.62" stroke="hsl(228.5, 77.2%, 51.5%)" stroke-width="1.5"></path><path d="M1553.05 691.62L1612.44 551.36" stroke="hsl(228.5, 77.2%, 51.5%)" stroke-width="1.5"></path><path d="M1553.05 691.62L1267.23 649.82" stroke="hsl(228.5, 77.2%, 51.5%)" stroke-width="1.5"></path><path d="M1553.05 691.62L1388.47 409.37" stroke="hsl(228.5, 77.2%, 51.5%)" stroke-width="1.5"></path><path d="M1553.05 691.62L1247.02 555.2" stroke="hsl(228.5, 77.2%, 51.5%)" stroke-width="1.5"></path><path d="M-38.63 546.96L-38.63 546.96" stroke="hsl(228.5, 77.2%, 51.5%)" stroke-width="1.5"></path><path d="M-38.63 546.96L105.95 523.83" stroke="hsl(228.5, 77.2%, 51.5%)" stroke-width="1.5"></path><path d="M-38.63 546.96L224.35 528.5" stroke="hsl(228.5, 77.2%, 51.5%)" stroke-width="1.5"></path><path d="M105.95 523.83L105.95 523.83" stroke="hsl(228.5, 77.2%, 51.5%)" stroke-width="1.5"></path><path d="M105.95 523.83L224.35 528.5" stroke="hsl(228.5, 77.2%, 51.5%)" stroke-width="1.5"></path><path d="M105.95 523.83L244.7 669.15" stroke="hsl(228.5, 77.2%, 51.5%)" stroke-width="1.5"></path><path d="M224.35 528.5L224.35 528.5" stroke="hsl(228.5, 77.2%, 51.5%)" stroke-width="1.5"></path><path d="M224.35 528.5L350.54 558.69" stroke="hsl(228.5, 77.2%, 51.5%)" stroke-width="1.5"></path><path d="M224.35 528.5L244.7 669.15" stroke="hsl(228.5, 77.2%, 51.5%)" stroke-width="1.5"></path><path d="M244.7 669.15L244.7 669.15" stroke="hsl(228.5, 77.2%, 51.5%)" stroke-width="1.5"></path><path d="M244.7 669.15L341.36 694" stroke="hsl(228.5, 77.2%, 51.5%)" stroke-width="1.5"></path><path d="M350.54 558.69L350.54 558.69" stroke="hsl(228.5, 77.2%, 51.5%)" stroke-width="1.5"></path><path d="M350.54 558.69L341.36 694" stroke="hsl(228.5, 77.2%, 51.5%)" stroke-width="1.5"></path><path d="M350.54 558.69L244.7 669.15" stroke="hsl(228.5, 77.2%, 51.5%)" stroke-width="1.5"></path><path d="M341.36 694L341.36 694" stroke="hsl(228.5, 77.2%, 51.5%)" stroke-width="1.5"></path><path d="M341.36 694L501.4 689.47" stroke="hsl(228.5, 77.2%, 51.5%)" stroke-width="1.5"></path><path d="M501.4 689.47L501.4 689.47" stroke="hsl(228.5, 77.2%, 51.5%)" stroke-width="1.5"></path><path d="M501.4 689.47L350.54 558.69" stroke="hsl(228.5, 77.2%, 51.5%)" stroke-width="1.5"></path><path d="M501.4 689.47L703.84 703.93" stroke="hsl(228.5, 77.2%, 51.5%)" stroke-width="1.5"></path><path d="M501.4 689.47L698.5 560.01" stroke="hsl(228.5, 77.2%, 51.5%)" stroke-width="1.5"></path><path d="M501.4 689.47L244.7 669.15" stroke="hsl(228.5, 77.2%, 51.5%)" stroke-width="1.5"></path><path d="M501.4 689.47L810.57 694.09" stroke="hsl(228.5, 77.2%, 51.5%)" stroke-width="1.5"></path><path d="M660.22 407.43L660.22 407.43" stroke="hsl(228.5, 77.2%, 51.5%)" stroke-width="1.5"></path><path d="M660.22 407.43L698.5 560.01" stroke="hsl(228.5, 77.2%, 51.5%)" stroke-width="1.5"></path><path d="M660.22 407.43L836.21 356.47" stroke="hsl(228.5, 77.2%, 51.5%)" stroke-width="1.5"></path><path d="M660.22 407.43L703.84 703.93" stroke="hsl(228.5, 77.2%, 51.5%)" stroke-width="1.5"></path><path d="M703.84 703.93L703.84 703.93" stroke="hsl(228.5, 77.2%, 51.5%)" stroke-width="1.5"></path><path d="M703.84 703.93L810.57 694.09" stroke="hsl(228.5, 77.2%, 51.5%)" stroke-width="1.5"></path><path d="M836.21 356.47L836.21 356.47" stroke="hsl(228.5, 77.2%, 51.5%)" stroke-width="1.5"></path><path d="M836.21 356.47L698.5 560.01" stroke="hsl(228.5, 77.2%, 51.5%)" stroke-width="1.5"></path><path d="M836.21 356.47L1102.44 254.27" stroke="hsl(228.5, 77.2%, 51.5%)" stroke-width="1.5"></path><path d="M836.21 356.47L1130.23 377.83" stroke="hsl(228.5, 77.2%, 51.5%)" stroke-width="1.5"></path><path d="M836.21 356.47L1090.24 560.96" stroke="hsl(228.5, 77.2%, 51.5%)" stroke-width="1.5"></path><path d="M810.57 694.09L810.57 694.09" stroke="hsl(228.5, 77.2%, 51.5%)" stroke-width="1.5"></path><path d="M810.57 694.09L973.7 695.51" stroke="hsl(228.5, 77.2%, 51.5%)" stroke-width="1.5"></path><path d="M810.57 694.09L698.5 560.01" stroke="hsl(228.5, 77.2%, 51.5%)" stroke-width="1.5"></path><path d="M810.57 694.09L972.64 496.93" stroke="hsl(228.5, 77.2%, 51.5%)" stroke-width="1.5"></path><path d="M810.57 694.09L1099.06 670.88" stroke="hsl(228.5, 77.2%, 51.5%)" stroke-width="1.5"></path><path d="M973.7 695.51L973.7 695.51" stroke="hsl(228.5, 77.2%, 51.5%)" stroke-width="1.5"></path><path d="M973.7 695.51L1099.06 670.88" stroke="hsl(228.5, 77.2%, 51.5%)" stroke-width="1.5"></path><path d="M973.7 695.51L1090.24 560.96" stroke="hsl(228.5, 77.2%, 51.5%)" stroke-width="1.5"></path><path d="M973.7 695.51L972.64 496.93" stroke="hsl(228.5, 77.2%, 51.5%)" stroke-width="1.5"></path><path d="M973.7 695.51L703.84 703.93" stroke="hsl(228.5, 77.2%, 51.5%)" stroke-width="1.5"></path><path d="M973.7 695.51L1267.23 649.82" stroke="hsl(228.5, 77.2%, 51.5%)" stroke-width="1.5"></path><path d="M1147.35 49.44L1147.35 49.44" stroke="hsl(228.5, 77.2%, 51.5%)" stroke-width="1.5"></path><path d="M1147.35 49.44L1304.27 99.2" stroke="hsl(228.5, 77.2%, 51.5%)" stroke-width="1.5"></path><path d="M1147.35 49.44L1279.31 -58.36" stroke="hsl(228.5, 77.2%, 51.5%)" stroke-width="1.5"></path><path d="M1102.44 254.27L1102.44 254.27" stroke="hsl(228.5, 77.2%, 51.5%)" stroke-width="1.5"></path><path d="M1102.44 254.27L1253.69 206.5" stroke="hsl(228.5, 77.2%, 51.5%)" stroke-width="1.5"></path><path d="M1102.44 254.27L1257.81 344.84" stroke="hsl(228.5, 77.2%, 51.5%)" stroke-width="1.5"></path><path d="M1102.44 254.27L1147.35 49.44" stroke="hsl(228.5, 77.2%, 51.5%)" stroke-width="1.5"></path><path d="M1090.24 560.96L1090.24 560.96" stroke="hsl(228.5, 77.2%, 51.5%)" stroke-width="1.5"></path><path d="M1090.24 560.96L1099.06 670.88" stroke="hsl(228.5, 77.2%, 51.5%)" stroke-width="1.5"></path><path d="M1090.24 560.96L1247.02 555.2" stroke="hsl(228.5, 77.2%, 51.5%)" stroke-width="1.5"></path><path d="M1090.24 560.96L1130.23 377.83" stroke="hsl(228.5, 77.2%, 51.5%)" stroke-width="1.5"></path><path d="M1099.06 670.88L1099.06 670.88" stroke="hsl(228.5, 77.2%, 51.5%)" stroke-width="1.5"></path><path d="M1099.06 670.88L1267.23 649.82" stroke="hsl(228.5, 77.2%, 51.5%)" stroke-width="1.5"></path><path d="M1099.06 670.88L1247.02 555.2" stroke="hsl(228.5, 77.2%, 51.5%)" stroke-width="1.5"></path><path d="M1099.06 670.88L972.64 496.93" stroke="hsl(228.5, 77.2%, 51.5%)" stroke-width="1.5"></path><path d="M1279.31 -58.36L1279.31 -58.36" stroke="hsl(228.5, 77.2%, 51.5%)" stroke-width="1.5"></path><path d="M1279.31 -58.36L1304.27 99.2" stroke="hsl(228.5, 77.2%, 51.5%)" stroke-width="1.5"></path><path d="M1279.31 -58.36L1442.02 66.84" stroke="hsl(228.5, 77.2%, 51.5%)" stroke-width="1.5"></path><path d="M1279.31 -58.36L1253.69 206.5" stroke="hsl(228.5, 77.2%, 51.5%)" stroke-width="1.5"></path><path d="M1279.31 -58.36L1437.75 220.02" stroke="hsl(228.5, 77.2%, 51.5%)" stroke-width="1.5"></path><path d="M1279.31 -58.36L1604.65 -62.89" stroke="hsl(228.5, 77.2%, 51.5%)" stroke-width="1.5"></path><path d="M1304.27 99.2L1304.27 99.2" stroke="hsl(228.5, 77.2%, 51.5%)" stroke-width="1.5"></path><path d="M1304.27 99.2L1253.69 206.5" stroke="hsl(228.5, 77.2%, 51.5%)" stroke-width="1.5"></path><path d="M1304.27 99.2L1442.02 66.84" stroke="hsl(228.5, 77.2%, 51.5%)" stroke-width="1.5"></path><path d="M1253.69 206.5L1253.69 206.5" stroke="hsl(228.5, 77.2%, 51.5%)" stroke-width="1.5"></path><path d="M1253.69 206.5L1257.81 344.84" stroke="hsl(228.5, 77.2%, 51.5%)" stroke-width="1.5"></path><path d="M1257.81 344.84L1257.81 344.84" stroke="hsl(228.5, 77.2%, 51.5%)" stroke-width="1.5"></path><path d="M1247.02 555.2L1247.02 555.2" stroke="hsl(228.5, 77.2%, 51.5%)" stroke-width="1.5"></path><path d="M1247.02 555.2L1267.23 649.82" stroke="hsl(228.5, 77.2%, 51.5%)" stroke-width="1.5"></path><path d="M1267.23 649.82L1267.23 649.82" stroke="hsl(228.5, 77.2%, 51.5%)" stroke-width="1.5"></path><path d="M1267.23 649.82L1090.24 560.96" stroke="hsl(228.5, 77.2%, 51.5%)" stroke-width="1.5"></path><path d="M1267.23 649.82L1438.65 517.07" stroke="hsl(228.5, 77.2%, 51.5%)" stroke-width="1.5"></path><path d="M1442.02 66.84L1442.02 66.84" stroke="hsl(228.5, 77.2%, 51.5%)" stroke-width="1.5"></path><path d="M1442.02 66.84L1437.75 220.02" stroke="hsl(228.5, 77.2%, 51.5%)" stroke-width="1.5"></path><path d="M1442.02 66.84L1609.36 98.33" stroke="hsl(228.5, 77.2%, 51.5%)" stroke-width="1.5"></path><path d="M1437.75 220.02L1437.75 220.02" stroke="hsl(228.5, 77.2%, 51.5%)" stroke-width="1.5"></path><path d="M1437.75 220.02L1597.14 216.75" stroke="hsl(228.5, 77.2%, 51.5%)" stroke-width="1.5"></path><path d="M1437.75 220.02L1304.27 99.2" stroke="hsl(228.5, 77.2%, 51.5%)" stroke-width="1.5"></path><path d="M1437.75 220.02L1253.69 206.5" stroke="hsl(228.5, 77.2%, 51.5%)" stroke-width="1.5"></path><path d="M1437.75 220.02L1388.47 409.37" stroke="hsl(228.5, 77.2%, 51.5%)" stroke-width="1.5"></path><path d="M1388.47 409.37L1388.47 409.37" stroke="hsl(228.5, 77.2%, 51.5%)" stroke-width="1.5"></path><path d="M1388.47 409.37L1257.81 344.84" stroke="hsl(228.5, 77.2%, 51.5%)" stroke-width="1.5"></path><path d="M1388.47 409.37L1579.11 356.6" stroke="hsl(228.5, 77.2%, 51.5%)" stroke-width="1.5"></path><path d="M1388.47 409.37L1247.02 555.2" stroke="hsl(228.5, 77.2%, 51.5%)" stroke-width="1.5"></path><path d="M1604.65 -62.89L1604.65 -62.89" stroke="hsl(228.5, 77.2%, 51.5%)" stroke-width="1.5"></path><path d="M1604.65 -62.89L1609.36 98.33" stroke="hsl(228.5, 77.2%, 51.5%)" stroke-width="1.5"></path><path d="M1604.65 -62.89L1442.02 66.84" stroke="hsl(228.5, 77.2%, 51.5%)" stroke-width="1.5"></path><path d="M1604.65 -62.89L1597.14 216.75" stroke="hsl(228.5, 77.2%, 51.5%)" stroke-width="1.5"></path><path d="M1609.36 98.33L1609.36 98.33" stroke="hsl(228.5, 77.2%, 51.5%)" stroke-width="1.5"></path><path d="M1609.36 98.33L1597.14 216.75" stroke="hsl(228.5, 77.2%, 51.5%)" stroke-width="1.5"></path><path d="M1609.36 98.33L1437.75 220.02" stroke="hsl(228.5, 77.2%, 51.5%)" stroke-width="1.5"></path><path d="M1609.36 98.33L1579.11 356.6" stroke="hsl(228.5, 77.2%, 51.5%)" stroke-width="1.5"></path><path d="M1597.14 216.75L1597.14 216.75" stroke="hsl(228.5, 77.2%, 51.5%)" stroke-width="1.5"></path><path d="M1597.14 216.75L1579.11 356.6" stroke="hsl(228.5, 77.2%, 51.5%)" stroke-width="1.5"></path><path d="M1579.11 356.6L1579.11 356.6" stroke="hsl(228.5, 77.2%, 51.5%)" stroke-width="1.5"></path><path d="M1579.11 356.6L1437.75 220.02" stroke="hsl(228.5, 77.2%, 51.5%)" stroke-width="1.5"></path><path d="M1579.11 356.6L1612.44 551.36" stroke="hsl(228.5, 77.2%, 51.5%)" stroke-width="1.5"></path><path d="M1612.44 551.36L1612.44 551.36" stroke="hsl(228.5, 77.2%, 51.5%)" stroke-width="1.5"></path><path d="M1612.44 551.36L1388.47 409.37" stroke="hsl(228.5, 77.2%, 51.5%)" stroke-width="1.5"></path><path d="M1612.44 551.36L1597.14 216.75" stroke="hsl(228.5, 77.2%, 51.5%)" stroke-width="1.5"></path><circle r="25" cx="698.5" cy="560.01" fill="url(&quot;#SvgjsRadialGradient1763&quot;)"></circle><circle r="25" cx="972.64" cy="496.93" fill="url(&quot;#SvgjsRadialGradient1763&quot;)"></circle><circle r="25" cx="1130.23" cy="377.83" fill="url(&quot;#SvgjsRadialGradient1763&quot;)"></circle><circle r="25" cx="1438.65" cy="517.07" fill="url(&quot;#SvgjsRadialGradient1763&quot;)"></circle><circle r="25" cx="1445.98" cy="693.68" fill="url(&quot;#SvgjsRadialGradient1763&quot;)"></circle><circle r="25" cx="1553.05" cy="691.62" fill="url(&quot;#SvgjsRadialGradient1763&quot;)"></circle><circle r="5" cx="-38.63" cy="546.96" fill="#8b9ad9"></circle><circle r="5" cx="105.95" cy="523.83" fill="#8b9ad9"></circle><circle r="5" cx="224.35" cy="528.5" fill="#8b9ad9"></circle><circle r="5" cx="244.7" cy="669.15" fill="#8b9ad9"></circle><circle r="5" cx="350.54" cy="558.69" fill="#8b9ad9"></circle><circle r="5" cx="341.36" cy="694" fill="#8b9ad9"></circle><circle r="5" cx="501.4" cy="689.47" fill="#8b9ad9"></circle><circle r="5" cx="660.22" cy="407.43" fill="#8b9ad9"></circle><circle r="5" cx="703.84" cy="703.93" fill="#8b9ad9"></circle><circle r="5" cx="836.21" cy="356.47" fill="#8b9ad9"></circle><circle r="5" cx="810.57" cy="694.09" fill="#8b9ad9"></circle><circle r="5" cx="973.7" cy="695.51" fill="#8b9ad9"></circle><circle r="5" cx="1147.35" cy="49.44" fill="#8b9ad9"></circle><circle r="5" cx="1102.44" cy="254.27" fill="#8b9ad9"></circle><circle r="5" cx="1090.24" cy="560.96" fill="#8b9ad9"></circle><circle r="5" cx="1099.06" cy="670.88" fill="#8b9ad9"></circle><circle r="5" cx="1279.31" cy="-58.36" fill="#8b9ad9"></circle><circle r="5" cx="1304.27" cy="99.2" fill="#8b9ad9"></circle><circle r="5" cx="1253.69" cy="206.5" fill="#8b9ad9"></circle><circle r="5" cx="1257.81" cy="344.84" fill="#8b9ad9"></circle><circle r="5" cx="1247.02" cy="555.2" fill="#8b9ad9"></circle><circle r="5" cx="1267.23" cy="649.82" fill="#8b9ad9"></circle><circle r="5" cx="1442.02" cy="66.84" fill="#8b9ad9"></circle><circle r="5" cx="1437.75" cy="220.02" fill="#8b9ad9"></circle><circle r="5" cx="1388.47" cy="409.37" fill="#8b9ad9"></circle><circle r="5" cx="1604.65" cy="-62.89" fill="#8b9ad9"></circle><circle r="5" cx="1609.36" cy="98.33" fill="#8b9ad9"></circle><circle r="5" cx="1597.14" cy="216.75" fill="#8b9ad9"></circle><circle r="5" cx="1579.11" cy="356.6" fill="#8b9ad9"></circle><circle r="5" cx="1612.44" cy="551.36" fill="#8b9ad9"></circle></g><defs><mask id="SvgjsMask1761"><rect width="1440" height="560" fill="#ffffff"></rect></mask><linearGradient x1="0%" y1="50%" x2="100%" y2="50%" gradientUnits="userSpaceOnUse" id="SvgjsLinearGradient1762"><stop stop-color="rgba(40, 14, 71, 0)" offset="0"></stop><stop stop-color="rgba(255, 255, 255, 0.54)" offset="1"></stop></linearGradient><radialGradient id="SvgjsRadialGradient1763"><stop stop-color="#ffffff" offset="0.1"></stop><stop stop-color="#1735b3" offset="0.2"></stop><stop stop-color="rgba(23, 53, 179, 0)" offset="1"></stop></radialGradient></defs></svg>